<svg viewBox="0 0 353 163" fill="none" xmlns="http://www.w3.org/2000/svg">
  <path 
    d="M2.88 138V96.784H13.12L28.672 118.608V96.784H40.704V138H30.4L14.912 116.24V138H2.88ZM56.0425 138L71.8505 96.784H84.5865L100.395 138H87.8505L84.3945 129.232H71.9785L68.5865 138H56.0425ZM73.5785 120.592H82.7945L78.1865 108.496L73.5785 120.592ZM122.997 138.64C121.205 138.64 119.498 138.512 117.877 138.256C116.256 138.043 114.698 137.68 113.205 137.168V127.184C114.229 127.611 115.381 127.931 116.661 128.144C117.941 128.357 119.221 128.464 120.501 128.464C122.805 128.464 124.448 127.995 125.429 127.056C126.41 126.117 126.901 124.56 126.901 122.384V96.784H138.933V124.304C138.933 128.784 137.568 132.304 134.837 134.864C132.149 137.381 128.202 138.64 122.997 138.64ZM155.27 138V96.784H165.51L181.062 118.608V96.784H193.094V138H182.79L167.302 116.24V138H155.27ZM208.433 138L224.241 96.784H236.977L252.785 138H240.241L236.785 129.232H224.369L220.977 138H208.433ZM225.969 120.592H235.185L230.577 108.496L225.969 120.592ZM268.155 138V96.784H289.595C292.966 96.784 295.718 97.4027 297.851 98.64C300.027 99.8773 301.648 101.605 302.715 103.824C303.782 106 304.315 108.539 304.315 111.44C304.315 114.213 303.611 116.667 302.203 118.8C300.838 120.891 299.003 122.491 296.699 123.6C297.168 123.984 297.574 124.453 297.915 125.008C298.256 125.52 298.64 126.245 299.067 127.184L303.803 138H291.259L286.907 128.08C286.566 127.312 286.139 126.779 285.627 126.48C285.158 126.139 284.475 125.968 283.579 125.968H280.187V138H268.155ZM280.187 116.752H286.523C288.272 116.752 289.616 116.304 290.555 115.408C291.536 114.469 292.027 113.147 292.027 111.44C292.027 107.813 290.32 106 286.907 106H280.187V116.752Z"
  />
  <path d="M323.6 138L338.576 95.632H350.928L335.952 138H323.6Z" fill="#E7BE00"/>
  <path 
    d="M70.904 71V38.744H59.32V29.784H94.52V38.744H82.936V71H70.904ZM127.724 71.64C120.897 71.64 115.67 69.976 112.044 66.648C108.46 63.32 106.668 57.944 106.668 50.52C106.668 45.4 107.478 41.2827 109.1 38.168C110.721 35.0107 113.089 32.728 116.204 31.32C119.361 29.8693 123.201 29.144 127.724 29.144C132.246 29.144 136.065 29.8693 139.18 31.32C142.337 32.728 144.726 35.0107 146.348 38.168C147.969 41.2827 148.78 45.4 148.78 50.52C148.78 57.944 146.966 63.32 143.34 66.648C139.713 69.976 134.508 71.64 127.724 71.64ZM127.724 61.4C130.796 61.4 133.014 60.5467 134.38 58.84C135.788 57.0907 136.492 54.3173 136.492 50.52C136.492 46.4667 135.788 43.608 134.38 41.944C133.014 40.2373 130.796 39.384 127.724 39.384C124.652 39.384 122.412 40.2373 121.004 41.944C119.638 43.608 118.956 46.4667 118.956 50.52C118.956 54.3173 119.638 57.0907 121.004 58.84C122.412 60.5467 124.652 61.4 127.724 61.4ZM164.14 71V29.784H175.852L186.092 50.712L196.268 29.784H207.916V71H195.884V50.392L189.292 63.96H182.828L176.172 50.392V71H164.14ZM223.302 71L239.111 29.784H251.847L267.655 71H255.111L251.655 62.232H239.239L235.847 71H223.302ZM240.839 53.592H250.055L245.447 41.496L240.839 53.592ZM294.904 71.64C292.131 71.64 289.507 71.4267 287.032 71C284.557 70.5307 282.445 69.8907 280.696 69.08V59.16C282.616 60.056 284.749 60.7813 287.096 61.336C289.443 61.8907 291.64 62.168 293.688 62.168C295.821 62.168 297.421 61.9973 298.488 61.656C299.597 61.272 300.152 60.44 300.152 59.16C300.152 58.264 299.832 57.56 299.192 57.048C298.595 56.536 297.635 56.0667 296.312 55.64C295.032 55.2133 293.347 54.68 291.256 54.04C288.483 53.144 286.285 52.1627 284.664 51.096C283.043 50.0293 281.869 48.728 281.144 47.192C280.461 45.656 280.12 43.7787 280.12 41.56C280.12 37.5067 281.549 34.4347 284.408 32.344C287.309 30.2107 291.597 29.144 297.272 29.144C299.533 29.144 301.859 29.336 304.248 29.72C306.68 30.104 308.643 30.5307 310.136 31V40.984C308.131 40.1733 306.211 39.5973 304.376 39.256C302.541 38.9147 300.813 38.744 299.192 38.744C297.315 38.744 295.715 38.8933 294.392 39.192C293.069 39.4907 292.408 40.2587 292.408 41.496C292.408 42.5627 292.963 43.352 294.072 43.864C295.224 44.3333 297.251 44.952 300.152 45.72C303.523 46.616 306.083 47.704 307.832 48.984C309.624 50.264 310.84 51.7573 311.48 53.464C312.12 55.128 312.44 57.0267 312.44 59.16C312.44 62.9147 310.989 65.944 308.088 68.248C305.187 70.5093 300.792 71.64 294.904 71.64Z"
  />
  <path
    d="M35.4 34.152L35.4 45.352L16.968 52.968L35.4 60.52L35.4 71.72L4.168 57.896L4.168 47.976L35.4 34.152Z" fill="#E7BE00"
  />
</svg>
