
<svg version="1.0" xmlns="http://www.w3.org/2000/svg" width="320.000000pt" height="320.000000pt" viewBox="0 0 320.000000 320.000000">
  <g transform="translate(0.000000,320.000000) scale(0.100000,-0.100000)" stroke="none">
    <path d="M1391 2879 c-479 -50 -918 -306 -1166 -679 -161 -241 -225 -525 -182
      -805 73 -470 453 -880 975 -1054 110 -37 131 -38 166 -10 26 20 26 22 26 154
      l0 134 -102 -6 c-134 -7 -234 9 -311 49 -62 33 -90 64 -127 138 -36 72 -78
      118 -151 167 -92 60 -94 83 -8 83 104 0 162 -36 291 -179 68 -75 121 -96 233
      -94 50 1 110 7 135 15 37 11 45 19 51 43 7 38 43 108 63 124 26 21 19 31 -21
      31 -83 1 -240 45 -371 105 -177 82 -292 290 -292 530 0 129 30 213 112 316 42
      52 43 55 31 89 -33 94 1 301 51 314 50 12 206 -34 340 -101 l69 -35 106 18
      c147 26 435 26 582 1 l106 -19 79 40 c103 52 232 92 295 92 l50 0 21 -47 c28
      -61 36 -200 16 -258 l-14 -40 44 -54 c82 -102 112 -192 112 -333 0 -116 -14
      -177 -63 -277 -49 -101 -124 -182 -213 -228 -91 -48 -230 -91 -336 -105 l-95
      -12 33 -43 c56 -74 64 -119 64 -369 l0 -223 26 -20 c35 -28 55 -27 166 9 457
      150 828 508 942 912 70 247 58 527 -33 746 -143 344 -513 667 -918 802 -235
      78 -517 106 -782 79z"
    />
  </g>
</svg>
