<svg viewBox="0 0 24 24" xmlns="http://www.w3.org/2000/svg">
  <path d="m12.0223 6.84375c-2.85712 0-5.13391 2.32143-5.13391 5.13395 0 2.8571 2.27679 5.1339 5.13391 5.1339 2.8125 0 5.1339-2.2768 5.1339-5.1339 0-2.81252-2.3214-5.13395-5.1339-5.13395zm0 8.48215c-1.8303 0-3.34819-1.4732-3.34819-3.3482 0-1.8304 1.47319-3.30359 3.34819-3.30359 1.8304 0 3.3036 1.47319 3.3036 3.30359 0 1.875-1.4732 3.3482-3.3036 3.3482zm6.5179-8.66072c0-.66964-.5357-1.20536-1.2054-1.20536-.6696 0-1.2053.53572-1.2053 1.20536s.5357 1.20536 1.2053 1.20536c.6697 0 1.2054-.53572 1.2054-1.20536zm3.3928 1.20536c-.0892-1.60715-.4464-3.03572-1.6071-4.19643-1.1607-1.16072-2.5893-1.51786-4.1964-1.60715-1.6518-.08928-6.60718-.08928-8.25896 0-1.60715.08929-2.99108.44643-4.19643 1.60715-1.16072 1.16071-1.51786 2.58928-1.60715 4.19643-.08928 1.65178-.08928 6.60716 0 8.25896.08929 1.6071.44643 2.991 1.60715 4.1964 1.20535 1.1607 2.58928 1.5179 4.19643 1.6071 1.65178.0893 6.60716.0893 8.25896 0 1.6071-.0892 3.0357-.4464 4.1964-1.6071 1.1607-1.2054 1.5179-2.5893 1.6071-4.1964.0893-1.6518.0893-6.60718 0-8.25896zm-2.1428 9.99996c-.3125.8929-1.0268 1.5625-1.875 1.9197-1.3393.5357-4.4643.4018-5.8929.4018-1.4732 0-4.59819.1339-5.89284-.4018-.89285-.3572-1.5625-1.0268-1.91964-1.9197-.53571-1.2946-.40178-4.4196-.40178-5.8928 0-1.4286-.13393-4.55359.40178-5.89288.35714-.84821 1.02679-1.51786 1.91964-1.875 1.29465-.53571 4.41964-.40178 5.89284-.40178 1.4286 0 4.5536-.13393 5.8929.40178.8482.3125 1.5178 1.02679 1.875 1.875.5357 1.33929.4018 4.46428.4018 5.89288 0 1.4732.1339 4.5982-.4018 5.8928z"/>
</svg>
