<svg viewBox="0 0 24 24" xmlns="http://www.w3.org/2000/svg">
  <path d="M7.26168 21H3.35514V8.35313H7.26168V21ZM5.30841 6.57188C4.00623 6.57188 3 5.5625 3 4.31562C3 3.06875 4.00623 2 5.30841 2C6.5514 2 7.55763 3.06875 7.55763 4.31562C7.55763 5.5625 6.5514 6.57188 5.30841 6.57188ZM22 21H18.0343V14.825C18.0343 13.4 18.0343 11.5 16.0218 11.5C13.9502 11.5 13.6542 13.1031 13.6542 14.7656V21H9.74766V8.35313H13.4766V10.075H13.5358C14.0685 9.06562 15.3707 7.99687 17.2648 7.99687C21.2305 7.99687 22 10.6687 22 14.0531V21Z"/>
</svg>
